<?xml version="1.0" encoding="utf-8"?>
<!-- Generator: Adobe Illustrator 18.1.0, SVG Export Plug-In . SVG Version: 6.00 Build 0)  -->
<svg version="1.1" xmlns="http://www.w3.org/2000/svg" xmlns:xlink="http://www.w3.org/1999/xlink" x="0px" y="0px"
	 viewBox="0 0 213.7 128" enable-background="new 0 0 213.7 128" xml:space="preserve">
<g id="Layer_2">
</g>
<g id="Layer_1">
	<path fill="#86F5B5" stroke="#FFFFFF" stroke-miterlimit="10" d="M128.9,81.9c0,21.7,17.6,39.3,39.3,39.3
		c21.7,0,39.3-17.6,39.3-39.3c0-21.7-17.6-39.3-39.3-39.3C146.5,42.7,128.9,60.2,128.9,81.9z M138.7,81.9
		c0-16.3,13.2-29.5,29.5-29.5c16.3,0,29.5,13.2,29.5,29.5c0,16.3-13.2,29.5-29.5,29.5C151.9,111.4,138.7,98.2,138.7,81.9z"/>
	<path fill="#FFFFFF" d="M132.6,81.9c0,19.6,15.9,35.5,35.6,35.5c19.6,0,35.6-15.9,35.6-35.5c0-19.6-15.9-35.6-35.6-35.6
		C148.5,46.4,132.6,62.3,132.6,81.9z M138.7,81.9c0-16.3,13.2-29.5,29.5-29.5c16.3,0,29.5,13.2,29.5,29.5
		c0,16.3-13.2,29.5-29.5,29.5C151.9,111.4,138.7,98.2,138.7,81.9z"/>
	<g>
		<g>
			<path fill="#86F5B5" d="M170.3,82.8c-10-19.3-20.1-38.7-30.1-58c-0.7-1.3-2.6-0.1-1.9,1.1c10,19.3,20.1,38.7,30.1,58
				C169.1,85.2,171,84.1,170.3,82.8L170.3,82.8z"/>
		</g>
	</g>
	<g>
		<g>
			<path fill="#86F5B5" d="M139.6,25.4c-22.5,0-45,0-67.5,0c-1.9,0-1.9,3,0,3c22.5,0,45,0,67.5,0C141.5,28.4,141.5,25.4,139.6,25.4
				L139.6,25.4z"/>
		</g>
	</g>
	<path fill="#86F5B5" stroke="#FFFFFF" stroke-miterlimit="10" d="M8.1,81.7c0,21.7,17.6,39.3,39.3,39.3c21.7,0,39.3-17.6,39.3-39.3
		c0-21.7-17.6-39.3-39.3-39.3C25.7,42.4,8.1,60,8.1,81.7z M17.9,81.7c0-16.3,13.2-29.5,29.5-29.5c16.3,0,29.5,13.2,29.5,29.5
		c0,16.3-13.2,29.5-29.5,29.5C31.1,111.2,17.9,98,17.9,81.7z"/>
	<path fill="#FFFFFF" d="M11.8,81.7c0,19.6,15.9,35.5,35.6,35.5c19.6,0,35.6-15.9,35.6-35.5c0-19.6-15.9-35.6-35.6-35.6
		C27.7,46.1,11.8,62.1,11.8,81.7z M17.9,81.7c0-16.3,13.2-29.5,29.5-29.5c16.3,0,29.5,13.2,29.5,29.5c0,16.3-13.2,29.5-29.5,29.5
		C31.1,111.2,17.9,98,17.9,81.7z"/>
	<g>
		<g>
			<path fill="#86F5B5" d="M70.7,26.4C62.3,44.6,53.9,62.8,45.4,81c-0.8,1.7,1.8,3.3,2.6,1.5c8.4-18.2,16.8-36.5,25.2-54.7
				C74.1,26.1,71.5,24.6,70.7,26.4L70.7,26.4z"/>
		</g>
	</g>
	<g>
		<g>
			<path fill="#86F5B5" d="M140,13.4c-6,24-12,48-18,72c-0.5,1.9,2.4,2.7,2.9,0.8c6-24,12-48,18-72C143.4,12.3,140.5,11.5,140,13.4
				L140,13.4z"/>
		</g>
	</g>
	<g>
		<g>
			<path fill="#86F5B5" d="M69.3,33.7c17.2,17.8,34.3,35.6,51.5,53.5c1.3,1.4,3.5-0.7,2.1-2.1c-17.2-17.8-34.3-35.6-51.5-53.5
				C70,30.2,67.9,32.3,69.3,33.7L69.3,33.7z"/>
		</g>
	</g>
	<g>
		<g>
			<path fill="#86F5B5" d="M169,82c-15.6,0.9-31.2,1.8-46.8,2.7c-1.9,0.1-1.9,3.1,0,3c15.6-0.9,31.2-1.8,46.8-2.7
				C170.9,84.9,170.9,81.9,169,82L169,82z"/>
		</g>
	</g>
	<circle fill="none" stroke="#999999" stroke-width="1.5" stroke-miterlimit="10" cx="122" cy="86.3" r="11.7"/>
	<g>
		<g>
			<path fill="#999999" d="M121,86c0,3.8,0,7.5,0,11.3c0,1,1.5,1,1.5,0c0-0.1,0-0.3,0-0.4c0-1-1.5-1-1.5,0c0,0.1,0,0.3,0,0.4
				c0.5,0,1,0,1.5,0c0-3.8,0-7.5,0-11.3C122.5,85,121,85,121,86L121,86z"/>
		</g>
	</g>
	<g>
		<g>
			<path fill="#999999" d="M121.2,85.4c-3.4,1.1-6.7,2.2-10.1,3.3c-0.9,0.3-0.5,1.7,0.4,1.4c0.1,0,0.3-0.1,0.4-0.1
				c0.9-0.3,0.5-1.7-0.4-1.4c-0.1,0-0.3,0.1-0.4,0.1c0.1,0.5,0.3,1,0.4,1.4c3.4-1.1,6.7-2.2,10.1-3.3
				C122.6,86.6,122.2,85.1,121.2,85.4L121.2,85.4z"/>
		</g>
	</g>
	<g>
		<g>
			<path fill="#999999" d="M122,85.1c-2-2.7-4-5.4-5.9-8.2c-0.6-0.8-1.9,0-1.3,0.8c0.1,0.1,0.2,0.2,0.2,0.3c0.6,0.8,1.9,0,1.3-0.8
				c-0.1-0.1-0.2-0.2-0.2-0.3c-0.4,0.3-0.9,0.5-1.3,0.8c2,2.7,4,5.4,5.9,8.2C121.2,86.6,122.5,85.9,122,85.1L122,85.1z"/>
		</g>
	</g>
	<g>
		<g>
			<path fill="#999999" d="M122.5,86.5c2.2-3.1,4.5-6.2,6.7-9.2c0.6-0.8-0.7-1.5-1.3-0.8c-0.1,0.1-0.2,0.2-0.3,0.4
				c-0.6,0.8,0.7,1.5,1.3,0.8c0.1-0.1,0.2-0.2,0.3-0.4c-0.4-0.3-0.9-0.5-1.3-0.8c-2.2,3.1-4.5,6.2-6.7,9.2
				C120.6,86.6,121.9,87.3,122.5,86.5L122.5,86.5z"/>
		</g>
	</g>
	<g>
		<g>
			<path fill="#999999" d="M133,89.3c-3.4-1.3-6.8-2.6-10.2-3.9c-0.9-0.3-1.3,1.1-0.4,1.4c0.1,0,0.3,0.1,0.4,0.1
				c0.9,0.3,1.3-1.1,0.4-1.4c-0.1,0-0.3-0.1-0.4-0.1c-0.1,0.5-0.3,1-0.4,1.4c3.4,1.3,6.8,2.6,10.2,3.9
				C133.5,91.1,133.9,89.7,133,89.3L133,89.3z"/>
		</g>
	</g>
	<g>
		<g>
			<path fill="#999999" d="M121.1,85.4c-2.6,5.5-5.2,10.9-7.8,16.4c-0.4,0.9,0.9,1.6,1.3,0.8c0.1-0.2,0.2-0.4,0.3-0.6
				c0.4-0.9-0.9-1.6-1.3-0.8c-0.1,0.2-0.2,0.4-0.3,0.6c0.4,0.3,0.9,0.5,1.3,0.8c2.6-5.5,5.2-10.9,7.8-16.4
				C122.8,85.3,121.5,84.5,121.1,85.4L121.1,85.4z"/>
		</g>
	</g>
	<circle cx="121.7" cy="86.2" r="0.8"/>
	<g>
		<g>
			<path fill="#999999" d="M113.9,102c-1.1,0-2.1,0-3.2,0c-1,0-1,1.5,0,1.5c1.1,0,2.1,0,3.2,0C114.9,103.5,114.9,102,113.9,102
				L113.9,102z"/>
		</g>
	</g>
	<g>
		<g>
			<path fill="#8C6239" d="M146.1,6.4c-5.3,0-10.7,0-16,0c0,1,0,2,0,3c0.3,0,0.6,0,0.9,0c1.9,0,1.9-3,0-3c-0.3,0-0.6,0-0.9,0
				c-1.9,0-1.9,3,0,3c5.3,0,10.7,0,16,0C148,9.4,148,6.4,146.1,6.4L146.1,6.4z"/>
		</g>
	</g>
	<g>
		<g>
			<path fill="#8C6239" d="M145.1,8.6c0.3,0.7,0.6,1.3,0.8,2c0.2,0.8,1.1,1.3,1.8,1c0.8-0.2,1.3-1.1,1-1.8c-0.2-1-0.6-1.9-1.1-2.8
				c-0.4-0.7-1.4-0.9-2.1-0.5C144.9,7,144.7,7.9,145.1,8.6L145.1,8.6z"/>
		</g>
	</g>
	<g>
		<g>
			<path fill="#8C6239" d="M146.4,9.6c-1.5,1.5-3.3,2.4-5.4,2.8c-1.9,0.3-1.1,3.2,0.8,2.9c2.6-0.4,4.9-1.7,6.7-3.6
				C149.9,10.3,147.8,8.2,146.4,9.6L146.4,9.6z"/>
		</g>
	</g>
	<g>
		<g>
			<path fill="#8C6239" d="M142.1,12.9c-3-3.9-6.8-5.1-11.4-6.4c-1.9-0.5-2.7,2.4-0.8,2.9c3.7,1,7.1,1.8,9.6,5
				C140.7,15.9,143.3,14.4,142.1,12.9L142.1,12.9z"/>
		</g>
	</g>
	<g>
		<g>
			<path fill="#8C6239" d="M143.7,10.2c0.5,0,0.7-0.2,0.5-0.4c0-0.1,0-0.2,0-0.3c-0.1,0.4-0.3,0.7-0.4,1.1c-1.1,0.3-1.2,0.1-0.3-0.8
				c-0.2,0.1-0.4,0.1-0.6,0.1c-0.3,0-0.7,0-1-0.1c-0.8-0.2-1.4-0.7-1.9-1.3c-0.2,0.8-0.4,1.7-0.7,2.5c0.5,0,0.5-0.2,0-0.5
				c0.3,1.9,3.2,1.1,2.9-0.8c-0.3-1.8-2.3-2.1-3.7-1.6c-1.1,0.4-1.4,1.6-0.7,2.5c1.5,1.8,4,2.7,6.3,2.1c2.8-0.7,2.1-4.3-0.4-4.9
				c-1.1-0.3-2.3,0.4-2.5,1.5c-0.2,1.1,0.3,2.3,1.2,3c1.9,1.4,5-0.4,4.1-2.8C145.9,7.6,143,8.4,143.7,10.2L143.7,10.2z"/>
		</g>
	</g>
	<g>
		<g>
			<path fill="#8C6239" d="M142.2,12.6c1.9,0,1.9-3,0-3C140.3,9.6,140.3,12.6,142.2,12.6L142.2,12.6z"/>
		</g>
	</g>
	<g>
		<g>
			<path fill="#8C6239" d="M141,15.3c1.9,0,1.9-3,0-3C139,12.3,139,15.3,141,15.3L141,15.3z"/>
		</g>
	</g>
	<g>
		<g>
			<path fill="#8C6239" d="M141.1,15.5c1.9,0,1.9-3,0-3C139.2,12.5,139.2,15.5,141.1,15.5L141.1,15.5z"/>
		</g>
	</g>
	<line fill="none" stroke="#CCCCCC" stroke-width="3" stroke-miterlimit="10" x1="72.1" y1="26.6" x2="78.2" y2="12.9"/>
	<ellipse fill="#F2F2F2" cx="72" cy="26.7" rx="1.5" ry="1.4"/>
	<path fill="#CCCCCC" d="M76.5,12.8c0,0.7,0.4,1.3,1.1,1.5c0.2,0.1,0.3,0.1,0.5,0.1c0.9,0,1.6-0.7,1.6-1.5c0-0.8-0.7-1.5-1.6-1.5
		S76.5,11.9,76.5,12.8z"/>
	<g>
		<g>
			<path fill="#CCCCCC" d="M78.4,11c-3.1,0.1-6.1,0.2-9.2,0.3c-1.9,0.1-1.9,3.1,0,3c3.1-0.1,6.1-0.2,9.2-0.3
				C80.3,13.9,80.3,10.9,78.4,11L78.4,11z"/>
		</g>
	</g>
	<g>
		<g>
			<path d="M75.5,24.3c-3.8,0-7.7,0-11.5,0c-1.9,0-1.9,3,0,3c3.8,0,7.7,0,11.5,0C77.4,27.3,77.4,24.3,75.5,24.3L75.5,24.3z"/>
		</g>
	</g>
	<g>
		<g>
			<path d="M69,11.2c-4.9,2.9-13.7,9.5-7.7,15.4c1.4,1.3,3.5-0.8,2.1-2.1c-4-3.9,4.3-9,7.1-10.7C72.2,12.8,70.7,10.2,69,11.2
				L69,11.2z"/>
		</g>
	</g>
	<g>
		<g>
			<path d="M64.1,25.7c-0.8,0-1.6-0.4-2-1.1c-0.2-0.3-0.6-0.5-1-0.3c-0.3,0.2-0.5,0.7-0.3,1c0.8,1.1,2,1.9,3.3,1.8
				C65,27.2,65,25.7,64.1,25.7L64.1,25.7z"/>
		</g>
	</g>
	<g>
		<g>
			<path d="M63.2,26c0,0,0,0.1,0,0.1c0,1.4,2.2,1.5,2.2,0c0,0,0-0.1,0-0.1C65.5,24.6,63.2,24.5,63.2,26L63.2,26z"/>
		</g>
	</g>
	<g>
		<g>
			<path d="M63.9,26.2c-0.2,0.1-0.4,0.1-0.6,0.2c-0.5,0.2-0.3,0.9,0.2,0.7c0.2-0.1,0.4-0.1,0.6-0.2C64.5,26.8,64.3,26.1,63.9,26.2
				L63.9,26.2z"/>
		</g>
	</g>
	<g>
		<g>
			<path d="M64.2,27.3c0.5,0,0.5-0.8,0-0.8C63.8,26.5,63.8,27.3,64.2,27.3L64.2,27.3z"/>
		</g>
	</g>
	<g>
		<g>
			<path d="M64.2,26.5c-0.6,0-1.5,0.1-2.1-0.2c-0.4-0.2-0.8,0.4-0.4,0.6c0.7,0.4,1.7,0.3,2.4,0.3C64.7,27.2,64.7,26.5,64.2,26.5
				L64.2,26.5z"/>
		</g>
	</g>
	<g>
		<g>
			<path d="M63.7,24.4C63.7,24.4,63.7,24.4,63.7,24.4c-0.2,0.1-0.3,0.3-0.4,0.5c0.2,0.1,0.4,0.1,0.6,0c0.4-0.1,0.4-0.6,0-0.7
				c-0.7-0.2-1.1-0.7-1.7-1c-0.4-0.3-0.8,0.4-0.4,0.6c0.7,0.4,1.1,0.9,1.9,1.1c0-0.2,0-0.5,0-0.7c-0.1,0-0.1,0-0.2,0
				c-0.4-0.1-0.6,0.4-0.4,0.6c0.2,0.2,0.5,0.3,0.8,0.3C64.4,25.1,64.2,24.3,63.7,24.4L63.7,24.4z"/>
		</g>
	</g>
	<line fill="none" stroke="#754C24" stroke-width="0.75" stroke-miterlimit="10" x1="69.4" y1="36.4" x2="66.6" y2="35.1"/>
	<line fill="none" stroke="#754C24" stroke-width="0.75" stroke-miterlimit="10" x1="68.4" y1="38.4" x2="65.6" y2="37.1"/>
	<ellipse fill="#8C6239" cx="115.2" cy="26.8" rx="1.6" ry="1.5"/>
	<ellipse fill="#8C6239" cx="110.2" cy="26.8" rx="1.6" ry="1.5"/>
	<ellipse fill="#8C6239" cx="120.2" cy="26.8" rx="1.6" ry="1.5"/>
</g>
<g id="Layer_3">
</g>
</svg>
